<svg width="33" height="33" viewBox="0 0 33 33" fill="none" xmlns="http://www.w3.org/2000/svg">
<path d="M33 16.4835C33 7.38375 25.608 0 16.5 0C7.392 0 0 7.38375 0 16.4835C0 21.4954 2.277 26.0122 5.841 29.0441C5.874 29.0771 5.907 29.0771 5.907 29.1101C6.204 29.3411 6.501 29.5721 6.831 29.8031C6.996 29.9021 7.128 30.0321 7.293 30.1641C10.0198 32.0128 13.2386 33.0007 16.533 33C19.8274 33.0007 23.0462 32.0128 25.773 30.1641C25.938 30.0651 26.07 29.9351 26.235 29.8341C26.532 29.6051 26.862 29.3741 27.159 29.1431C27.192 29.1101 27.225 29.1101 27.225 29.0771C30.723 26.0102 33 21.4954 33 16.4835ZM16.5 30.9231C13.398 30.9231 10.56 29.9331 8.217 28.2851C8.25 28.0211 8.316 27.7592 8.382 27.4952C8.57864 26.7797 8.86703 26.0927 9.24 25.4513C9.603 24.8243 10.032 24.2633 10.56 23.7682C11.055 23.2733 11.649 22.8133 12.243 22.4503C12.87 22.0873 13.53 21.8233 14.256 21.6253C14.9876 21.4281 15.7422 21.3289 16.5 21.3304C18.7495 21.3144 20.9163 22.1773 22.539 23.7353C23.298 24.4943 23.892 25.3853 24.321 26.4062C24.552 27.0002 24.717 27.6272 24.816 28.2851C22.3806 29.9973 19.4771 30.9183 16.5 30.9231ZM11.451 15.6606C11.1602 14.9948 11.014 14.275 11.022 13.5486C11.022 12.8246 11.154 12.0986 11.451 11.4386C11.748 10.7786 12.144 10.1867 12.639 9.69169C13.134 9.19669 13.728 8.80275 14.388 8.50575C15.048 8.20875 15.774 8.07675 16.5 8.07675C17.259 8.07675 17.952 8.20875 18.612 8.50575C19.272 8.80275 19.866 9.19875 20.361 9.69169C20.856 10.1867 21.252 10.7807 21.549 11.4386C21.846 12.0986 21.978 12.8246 21.978 13.5486C21.978 14.3076 21.846 15.0006 21.549 15.6585C21.2624 16.3087 20.8598 16.9014 20.361 17.4075C19.8547 17.9056 19.2621 18.3074 18.612 18.5934C17.2483 19.1538 15.7187 19.1538 14.355 18.5934C13.7049 18.3074 13.1123 17.9056 12.606 17.4075C12.1065 16.9088 11.7135 16.3137 11.451 15.6585V15.6606ZM26.763 26.6042C26.763 26.5382 26.73 26.5052 26.73 26.4392C26.4054 25.4067 25.9271 24.4291 25.311 23.5393C24.6944 22.6429 23.9365 21.8524 23.067 21.1984C22.4029 20.6988 21.6831 20.278 20.922 19.9444C21.2683 19.7159 21.5891 19.4511 21.879 19.1544C22.371 18.6687 22.8031 18.1259 23.166 17.5374C23.8969 16.3367 24.2743 14.9541 24.255 13.5486C24.2652 12.5081 24.0631 11.4764 23.661 10.5167C23.264 9.59194 22.6926 8.75233 21.978 8.04375C21.2645 7.34256 20.4247 6.78272 19.503 6.39375C18.5417 5.99237 17.5087 5.79097 16.467 5.80181C15.4252 5.79162 14.3922 5.99373 13.431 6.39581C12.5013 6.78395 11.6595 7.35567 10.956 8.07675C10.2548 8.78952 9.69497 9.62861 9.306 10.5497C8.90391 11.5094 8.70179 12.5411 8.712 13.5816C8.712 14.3076 8.811 15.0006 9.009 15.6585C9.207 16.3515 9.471 16.9785 9.834 17.5704C10.164 18.1644 10.626 18.6924 11.121 19.1874C11.418 19.4844 11.748 19.7464 12.111 19.9774C11.3475 20.3199 10.6275 20.7519 9.966 21.2644C9.108 21.9244 8.349 22.7143 7.722 23.5723C7.09966 24.4584 6.62079 25.437 6.303 26.4722C6.27 26.5382 6.27 26.6042 6.27 26.6372C3.663 23.9993 2.046 20.4394 2.046 16.4835C2.046 8.53875 8.547 2.04394 16.5 2.04394C24.453 2.04394 30.954 8.53875 30.954 16.4835C30.9497 20.2784 29.4428 23.9172 26.763 26.6042Z" fill="black"/>
</svg>
