<svg width="33" height="33" viewBox="0 0 33 33" fill="none" xmlns="http://www.w3.org/2000/svg">
<path d="M30.25 27.5V16.7393C30.2501 15.9906 30.0973 15.2498 29.8011 14.5623C29.5048 13.8747 29.0713 13.2549 28.5271 12.7408L18.3892 3.15977C17.8787 2.67705 17.2027 2.40808 16.5 2.40808C15.7973 2.40808 15.1213 2.67705 14.6108 3.15977L4.47288 12.7408C3.92868 13.2549 3.49518 13.8747 3.19893 14.5623C2.90268 15.2498 2.74992 15.9906 2.75 16.7393V27.5C2.75 28.2294 3.03973 28.9288 3.55546 29.4446C4.07118 29.9603 4.77065 30.25 5.5 30.25H27.5C28.2293 30.25 28.9288 29.9603 29.4445 29.4446C29.9603 28.9288 30.25 28.2294 30.25 27.5Z" stroke="black" stroke-width="2" stroke-linecap="round" stroke-linejoin="round"/>
</svg>
