<svg width="97" height="84" viewBox="0 0 97 84" fill="none" xmlns="http://www.w3.org/2000/svg">
<path d="M32.5 28V10.5M32.5 28C29.3483 28 26.2274 28.5432 23.3156 29.5985C20.4038 30.6539 17.758 32.2007 15.5294 34.1508C13.3008 36.1008 11.533 38.4158 10.3269 40.9636C9.12078 43.5115 8.5 46.2422 8.5 49C8.5 51.7578 9.12078 54.4885 10.3269 57.0364C11.533 59.5842 13.3008 61.8992 15.5294 63.8492C17.758 65.7993 20.4038 67.3461 23.3156 68.4015C26.2274 69.4568 29.3483 70 32.5 70C38.8652 70 44.9697 67.7875 49.4706 63.8492C53.9714 59.911 56.5 54.5695 56.5 49C56.5 43.4305 53.9714 38.089 49.4706 34.1508C44.9697 30.2125 38.8652 28 32.5 28Z" stroke="black" stroke-width="1.5" stroke-linecap="round" stroke-linejoin="round"/>
<path d="M64.5 28V10.5M64.5 28C61.3483 28 58.2274 28.5432 55.3156 29.5985C52.4038 30.6539 49.758 32.2007 47.5294 34.1508C45.3008 36.1008 43.533 38.4158 42.3269 40.9636C41.1208 43.5115 40.5 46.2422 40.5 49C40.5 51.7578 41.1208 54.4885 42.3269 57.0364C43.533 59.5842 45.3008 61.8992 47.5294 63.8492C49.758 65.7993 52.4038 67.3461 55.3156 68.4015C58.2274 69.4568 61.3483 70 64.5 70C70.8652 70 76.9697 67.7875 81.4706 63.8492C85.9714 59.911 88.5 54.5695 88.5 49C88.5 43.4305 85.9714 38.089 81.4706 34.1508C76.9697 30.2125 70.8652 28 64.5 28V28Z" stroke="black" stroke-width="1.5" stroke-linecap="round" stroke-linejoin="round"/>
</svg>
