<svg width="33" height="33" viewBox="0 0 33 33" fill="none" xmlns="http://www.w3.org/2000/svg">
<path d="M5.75 16V27H11.25V16H5.75ZM14 7.75V27H19.5V7.75H14ZM22.25 18.75V27H27.75V18.75H22.25ZM27.75 29.75H5.75C4.99375 29.75 4.34658 29.481 3.8085 28.9429C3.2695 28.4039 3 27.7563 3 27V16C3 15.2437 3.2695 14.5961 3.8085 14.0571C4.34658 13.519 4.99375 13.25 5.75 13.25H11.25V7.75C11.25 6.99375 11.5195 6.34612 12.0585 5.80712C12.5966 5.26904 13.2437 5 14 5H19.5C20.2563 5 20.9039 5.26904 21.4429 5.80712C21.981 6.34612 22.25 6.99375 22.25 7.75V16H27.75C28.5063 16 29.1539 16.269 29.6929 16.8071C30.231 17.3461 30.5 17.9937 30.5 18.75V27C30.5 27.7563 30.231 28.4039 29.6929 28.9429C29.1539 29.481 28.5063 29.75 27.75 29.75Z" fill="black"/>
</svg>
