<?xml version="1.0" encoding="utf-8"?>
<!-- Generator: Adobe Illustrator 21.0.0, SVG Export Plug-In . SVG Version: 6.00 Build 0)  -->
<svg version="1.1" id="Layer_1" xmlns="http://www.w3.org/2000/svg" xmlns:xlink="http://www.w3.org/1999/xlink" x="0px" y="0px"
	 width="1400px" height="980px" viewBox="0 0 1400 980" style="enable-background:new 0 0 1400 980;" xml:space="preserve">
<style type="text/css">
	.st0{fill:#606060;}
</style>
<path class="st0" d="M747.3,111.1c-16.2,0-29.4,13.2-29.4,29.4v1.5h-8.1H699h-4.4v-25c2.6-2.3,4.2-5.7,4.2-9.4v-22
	c0-3.2-4.2-7.6-8.5-8.7v-2.2c0-3.2-2.6-5.8-5.8-5.8h-4.3c-1.5,0-2.8,0.6-3.9,1.5c-1-0.9-2.4-1.5-3.9-1.5h-4.3
	c-1.5,0-2.8,0.6-3.9,1.5c-1-0.9-2.4-1.5-3.9-1.5h-4.3c-1.5,0-2.8,0.6-3.9,1.5c-1-0.9-2.4-1.5-3.9-1.5h-4.3c-3.2,0-5.8,2.6-5.8,5.8
	v26.2c0,3.2,2.6,5.8,5.8,5.8h0.4v60.9c0,16.7,13.6,30.3,30.3,30.3h100c1.1,0,1.9-0.9,1.9-1.9v-55.6
	C776.7,124.3,763.5,111.1,747.3,111.1z M690.4,101.1v-20c2.4,1,4.6,3.7,4.6,4.6v22c0,4.8-3.9,8.7-8.7,8.7h-7.9v-5.3
	c0-1.1-0.9-1.9-2-1.9c-3.9,0-7.6,1.3-10.7,3.6c-0.7-1.3-1.1-2.7-1.1-3.9v-2h3.6h4.3h7.7h3.9h0.4
	C687.8,106.9,690.4,104.3,690.4,101.1z M674.5,113.3v3.2h-4.4c-0.6,0-1.3-0.2-1.9-0.6C670,114.5,672.2,113.6,674.5,113.3z
	 M644.2,103c-1.1,0-1.9-0.9-1.9-1.9V74.9c0-1.1,0.9-1.9,1.9-1.9h4.3c1.1,0,1.9,0.9,1.9,1.9c0,1.1,0.9,1.9,1.9,1.9s1.9-0.9,1.9-1.9
	c0-1.1,0.9-1.9,1.9-1.9h4.3c1.1,0,1.9,0.9,1.9,1.9c0,1.1,0.9,1.9,1.9,1.9s1.9-0.9,1.9-1.9c0-1.1,0.9-1.9,1.9-1.9h4.3
	c1.1,0,1.9,0.9,1.9,1.9c0,1.1,0.9,1.9,1.9,1.9s1.9-0.9,1.9-1.9c0-1.1,0.9-1.9,1.9-1.9h4.3c1.1,0,1.9,0.9,1.9,1.9v26.2
	c0,1.1-0.9,1.9-1.9,1.9h-0.4h-3.9c-1.1,0-1.9-0.9-1.9-1.9V89.4c0-1.1-0.9-1.9-1.9-1.9s-1.9,0.9-1.9,1.9v11.7c0,1.1-0.9,1.9-1.9,1.9
	h-4.3c-1.1,0-1.9-0.9-1.9-1.9V89.4c0-1.1-0.9-1.9-1.9-1.9s-1.9,0.9-1.9,1.9v11.7c0,1.1-0.9,1.9-1.9,1.9h-4.3c-1.1,0-1.9-0.9-1.9-1.9
	V89.4c0-1.1-0.9-1.9-1.9-1.9s-1.9,0.9-1.9,1.9v11.7c0,1.1-0.9,1.9-1.9,1.9H644.2z M772.8,194.3h-98c-14.6,0-26.4-11.8-26.4-26.4
	v-60.9h0.1c1.5,0,2.8-0.6,3.9-1.5c1,0.9,2.4,1.5,3.9,1.5h4.3c0.1,0,0.1,0,0.2,0v2.1c0,2.7,1.1,5.7,3,7.9c0.1,0.1,0.1,0.2,0.2,0.3
	c0,0,0.1,0,0.1,0.1c1.6,1.8,3.7,3.1,6.1,3.1h16.2c1.6,0,3.1-0.3,4.5-0.8v23.8c-12.3,3.6-21.3,14.9-21.3,28.4c0,1.1,0.9,1.9,1.9,1.9
	s1.9-0.9,1.9-1.9c0-14.2,11.5-25.7,25.7-25.7h10.7h10c1.1,0,1.9-0.9,1.9-1.9v-3.5c0-14.1,11.5-25.6,25.6-25.6s25.6,11.5,25.6,25.6
	V194.3z"/>
<path class="st0" d="M529.1,99c-8.4-8.4-22-8.7-30.3-0.7c-4.1,4-6.5,9.4-6.5,15.1c-0.1,5.8,2.2,11.2,6.2,15.2l0.4,0.4l-3.6,3.6
	L490,138l-1.8,1.8L470,121.6v-2.2c0-1-0.4-2-1.1-2.8c0.7-0.8,1.1-1.7,1.1-2.8v-3.1c0-2.4-2.2-4.3-5.1-4.6c0,0-0.1,0-0.1,0
	c-0.1,0-0.1,0-0.2,0c0,0-0.1,0-0.1,0c0,0,0,0-0.1,0l-2.9,0c0.5-0.6,0.9-1.5,0.9-2.4v-5.5c0-3.5-2.8-6.3-6.3-6.3h-14.8l-7.9-7.9
	c-2.2-2.2-5.7-2.4-7.7-0.4l-2.5,2.5c-0.8,0.8-1.3,2-1.4,3.2c-1.2,0.1-2.3,0.5-3.1,1.4l-2.5,2.5c-0.8,0.8-1.3,2-1.4,3.2
	c-1.2,0.1-2.3,0.5-3.1,1.4l-2.5,2.5c-0.9,0.9-1.3,2-1.4,3.2c-1.2,0.1-2.3,0.5-3.2,1.4l-2.5,2.5c-2,2-1.8,5.5,0.4,7.7l0.6,0.6
	L379,139.7l-1.8-1.8c0,0,0,0,0,0l-3.6-3.6l-5.4-5.4c8.3-8.4,8.6-21.9,0.6-30.2c-4-4.1-9.4-6.5-15.1-6.5c-5.7-0.1-11.2,2.2-15.2,6.2
	l-9.6,9.6c-10.7,10.7-10.7,28.1,0,38.8l31.7,31.7c4.3,4.3,9.9,6.4,15.5,6.4c5.6,0,11.2-2.1,15.5-6.4l34.3-34.3h11.7h0.3h3.4
	l34.3,34.3c4.3,4.3,9.9,6.4,15.5,6.4c5.6,0,11.2-2.1,15.5-6.4l31.7-31.7c5.2-5.2,8-12.1,8-19.4s-2.9-14.2-8-19.4L529.1,99z
	 M439.5,95.7h1.1c0.1,0,0.2,0,0.2,0h3.3v1.2h-3.8l-1.2-1.2C439.3,95.7,439.4,95.7,439.5,95.7z M439.5,100.8h6.6
	c1.1,0,1.9-0.9,1.9-1.9v-3.1h8.2c1.3,0,2.4,1.1,2.4,2.4v5.4h-23v-3.9c0-0.5,0.1-1.1,0.3-1.5l2.2,2.2
	C438.5,100.6,439,100.8,439.5,100.8z M448.6,107.4l-2,2c-0.5,0.5-1.5,0.3-2.2-0.4c0,0,0,0,0,0l-1.6-1.6H448.6z M404.9,110.1l2.5-2.5
	c0.5-0.5,1.5-0.3,2.2,0.4c0.8,0.8,2,0.8,2.7,0c0.4-0.4,0.6-0.9,0.6-1.4s-0.2-1-0.6-1.4c-0.4-0.4-0.6-0.9-0.6-1.3
	c0-0.3,0-0.6,0.3-0.9l2.5-2.5c0.5-0.5,1.5-0.3,2.2,0.4c0.8,0.8,2,0.8,2.7,0c0.4-0.4,0.6-0.9,0.6-1.4s-0.2-1-0.6-1.4
	c-0.4-0.4-0.6-0.9-0.6-1.3c0-0.3,0-0.6,0.3-0.9l2.5-2.5c0.5-0.5,1.5-0.3,2.2,0.4c0.8,0.8,2,0.8,2.7,0c0.4-0.4,0.6-0.9,0.6-1.4
	c0-0.5-0.2-1-0.6-1.4c-0.4-0.4-0.6-0.9-0.6-1.3c0-0.3,0-0.6,0.3-0.9l2.5-2.5c0.5-0.5,1.5-0.3,2.2,0.4l5.7,5.7
	c-2.8,1.2-4.8,3.9-4.8,7.1v4.1c0,2,1.7,3.7,3.7,3.7h1.9l4.4,4.4c0,0,0,0,0,0c0.4,0.4,0.6,0.9,0.6,1.3c0,0.3,0,0.6-0.3,0.9l-2.5,2.5
	c-0.3,0.3-0.6,0.3-0.9,0.3c-0.5,0-0.9-0.3-1.3-0.6c0,0,0,0,0,0l-5.8-5.8c-0.8-0.8-2-0.8-2.7,0c-0.8,0.8-0.8,2,0,2.7l5.8,5.8
	c0,0,0,0,0,0c0.4,0.4,0.6,0.9,0.6,1.3c0,0.3,0,0.6-0.3,0.9l-2.5,2.5c-0.3,0.3-0.6,0.3-0.9,0.3c-0.5,0-0.9-0.3-1.3-0.6l-5.8-5.8
	c-0.8-0.8-2-0.8-2.7,0c-0.8,0.8-0.8,2,0,2.7l5.8,5.8c0.4,0.4,0.6,0.9,0.6,1.3c0,0.3,0,0.6-0.3,0.9l-2.5,2.5
	c-0.5,0.5-1.5,0.3-2.2-0.4l-17.9-17.9C404.6,111.6,404.5,110.6,404.9,110.1z M442.1,140.4h-4.2h-0.3H425c-0.5,0-1,0.2-1.4,0.6
	l-34.9,34.9c-7,7-18.4,7-25.4,0l-31.7-31.7c-9.2-9.2-9.2-24.1,0-33.3l9.6-9.6c3.3-3.3,7.8-5.1,12.5-5.1c4.7,0,9.1,1.9,12.4,5.3
	c6.5,6.8,6.2,17.9-0.7,24.8l-1.3,1.3c-0.8,0.8-0.8,2,0,2.7l10.3,10.3c6.8,6.8,6.8,17.9,0,24.7c-0.8,0.8-0.8,2,0,2.7
	c0.4,0.4,0.9,0.6,1.4,0.6s1-0.2,1.4-0.6c4-4,6.3-9.4,6.3-15.1c0-3.5-0.8-6.9-2.4-9.9l24.8-24.8l14.6,14.6c1.2,1.2,2.7,1.8,4.2,1.8
	c1.3,0,2.6-0.5,3.5-1.4l2.5-2.5c0.9-0.9,1.3-2,1.4-3.1c1.2-0.1,2.3-0.6,3.2-1.4l2.5-2.5c0.8-0.8,1.3-1.9,1.4-3.1
	c1.2-0.1,2.3-0.6,3.1-1.4l2.5-2.5c0.8-0.8,1.3-2,1.4-3.2c1.2-0.1,2.3-0.5,3.1-1.4l2.2-2.2l12.9,0c1.2,0.1,1.7,0.7,1.7,0.8v3.1
	c0,0.2-0.7,0.8-2,0.8h-10.8c-1.1,0-1.9,0.9-1.9,1.9c0,1.1,0.9,1.9,1.9,1.9h10.8c1.3,0,2,0.6,2,0.8v3.1c0,0.2-0.7,0.8-2,0.8h-11.9
	c-1.1,0-1.9,0.9-1.9,1.9s0.9,1.9,1.9,1.9h11.9c1.3,0,2,0.6,2,0.8v3.1c0,0.2-0.7,0.8-2,0.8h-11.9c-1.1,0-1.9,0.9-1.9,1.9
	c0,1.1,0.9,1.9,1.9,1.9h11.9c1.3,0,2,0.6,2,0.8v3.1c0,0.2-0.7,0.8-2,0.8H442.1C442.1,140.4,442.1,140.4,442.1,140.4z M535.5,144.2
	l-31.7,31.7c-7,7-18.4,7-25.4,0l-31.6-31.6h17.4c3.3,0,5.9-2.1,5.9-4.7v-3.1c0-1-0.4-2-1.1-2.8c0.7-0.8,1.1-1.7,1.1-2.8v-3.1
	c0-0.4-0.1-0.7-0.2-1l16.2,16.2c-1.6,3-2.4,6.4-2.4,9.9c0,5.7,2.2,11.1,6.3,15.1c0.4,0.4,0.9,0.6,1.4,0.6c0.5,0,1-0.2,1.4-0.6
	c0.8-0.8,0.8-2,0-2.7c-6.8-6.8-6.8-17.9,0-24.7l10.3-10.3c0.8-0.8,0.8-2,0-2.7l-1.7-1.7c-3.3-3.3-5.1-7.8-5.1-12.5
	c0-4.7,1.9-9.1,5.3-12.4c6.8-6.5,17.9-6.2,24.8,0.7l9.2,9.2c4.4,4.4,6.9,10.4,6.9,16.6S540,139.8,535.5,144.2z"/>
<path class="st0" d="M210.9,132.7v-3.5c0-1.5-0.7-2.9-1.9-3.9c1.2-1,1.9-2.4,1.9-3.9v-4.4c0-3-2.8-5.4-6.6-5.8c0,0,0,0-0.1,0
	c-0.1,0-0.1,0-0.2,0c0,0,0,0-0.1,0c0,0,0,0-0.1,0l-6.1,0c1.4-0.5,2.4-1.9,2.4-3.5V97.1c0-3.5-2.8-6.3-6.3-6.3h-23.3l-11.5-11.5
	c-1.3-1.3-3.1-2.1-4.8-2.3c-1.9-0.1-3.6,0.5-4.9,1.8l-3.6,3.6c-1.3,1.3-1.8,3-1.8,4.7c-1.8-0.1-3.5,0.5-4.7,1.8l-3.6,3.6
	c-1.2,1.2-1.9,2.9-1.8,4.7c-1.7-0.1-3.5,0.5-4.7,1.8l-3.6,3.6c-1.2,1.2-1.9,2.9-1.8,4.7c-1.8-0.1-3.5,0.5-4.7,1.8l-3.6,3.6
	c-2.5,2.5-2.3,6.9,0.5,9.8l1.3,1.3l-30.3,30.3c-0.4,0.4-0.6,0.9-0.6,1.4s0.2,1,0.6,1.4l32.8,32.8c0.4,0.4,0.9,0.6,1.4,0.6
	s1-0.2,1.4-0.6l25.6-25.6h17.2c0,0,0,0,0,0h5.7l25.6,25.6c0.4,0.4,0.9,0.6,1.4,0.6s1-0.2,1.4-0.6l32.8-32.8c0.4-0.4,0.6-0.9,0.6-1.4
	c0-0.5-0.2-1-0.6-1.4L210.9,132.7z M179.5,100v-5.3h14.4c1.3,0,2.4,1.1,2.4,2.4v10.3h-34.5v-8.9c0-0.6,0.2-1.2,0.4-1.8
	c0,0,0.1,0.1,0.1,0.2c3.2,3.2,7.5,5,12.1,5h3.1C178.6,102,179.5,101.1,179.5,100z M182.9,111.3c-0.1,0.2-0.2,0.5-0.4,0.6l-3.6,3.6
	c-0.5,0.5-1.1,0.7-1.9,0.6c-0.9-0.1-1.7-0.5-2.4-1.2c0,0,0,0,0,0l-3.7-3.7H182.9z M165.7,94.7h4c0.1,0,0.2,0,0.3,0h5.6v3.4h-1.2
	C171.2,98.1,168.1,96.9,165.7,94.7C165.7,94.7,165.7,94.7,165.7,94.7z M118.3,115.5l3.6-3.6c1-1,3-0.8,4.3,0.5c0.8,0.8,2,0.8,2.7,0
	c0.4-0.4,0.6-0.9,0.6-1.4c0-0.5-0.2-1-0.6-1.4c-0.7-0.7-1.1-1.5-1.2-2.4c-0.1-0.8,0.2-1.4,0.6-1.9l3.6-3.6c1-1,3-0.8,4.3,0.5
	c0.8,0.8,2,0.8,2.7,0c0.4-0.4,0.6-0.9,0.6-1.4c0-0.5-0.2-1-0.6-1.4c-0.7-0.7-1.1-1.5-1.2-2.4c-0.1-0.8,0.2-1.4,0.6-1.9l3.6-3.6
	c0.5-0.5,1.1-0.7,1.9-0.6c0.9,0.1,1.7,0.5,2.4,1.2c0.8,0.8,2,0.8,2.7,0c0.4-0.4,0.6-0.9,0.6-1.4c0-0.5-0.2-1-0.6-1.4
	c-1.3-1.3-1.5-3.3-0.5-4.3l3.6-3.6c0.5-0.5,1.1-0.7,1.9-0.6c0.9,0.1,1.7,0.5,2.4,1.2l8.7,8.7c-4,0.3-7.2,3.6-7.2,7.7v9.1
	c0,2,1.7,3.7,3.7,3.7h3.8l6.5,6.5c0,0,0,0,0,0c1.3,1.3,1.5,3.3,0.5,4.3l-3.6,3.6c-1,1-3,0.8-4.3-0.5c0,0,0,0,0,0l-8.2-8.2
	c-0.8-0.8-2-0.8-2.7,0c-0.8,0.8-0.8,2,0,2.7l8.2,8.2c0,0,0,0,0,0c0.7,0.7,1.1,1.5,1.2,2.4c0.1,0.8-0.2,1.4-0.6,1.9l-3.6,3.6
	c-1,1-3,0.8-4.3-0.5c0,0,0,0,0,0l-8.2-8.2c-0.8-0.8-2-0.8-2.7,0c-0.8,0.8-0.8,2,0,2.7l8.2,8.2c0,0,0,0,0,0c0.7,0.7,1.1,1.5,1.2,2.4
	c0.1,0.8-0.2,1.4-0.6,1.9l-3.6,3.6c-0.5,0.5-1.1,0.7-1.9,0.6c-0.9-0.1-1.7-0.5-2.4-1.2l-25.6-25.6
	C117.5,118.4,117.3,116.5,118.3,115.5z M171.9,160.2h-6.5c0,0,0,0,0,0h-18c-0.5,0-1,0.2-1.4,0.6l-24.8,24.8l-30-30l28.9-28.9
	l21.5,21.5c1.5,1.5,3.5,2.3,5.4,2.3c1.6,0,3.2-0.6,4.4-1.8l3.6-3.6c1.2-1.2,1.9-2.9,1.8-4.7c1.8,0.1,3.5-0.5,4.7-1.8l3.6-3.6
	c1.2-1.2,1.9-2.9,1.8-4.7c1.7,0.1,3.5-0.5,4.7-1.8l3.6-3.6c1.3-1.3,1.8-3,1.8-4.7c1.8,0.1,3.5-0.5,4.7-1.8l3.4-3.4c0,0,0.1,0,0.1,0
	l18.7,0c1.9,0.1,3.2,1.2,3.2,2v4.4c0,0.9-1.6,2-3.7,2H188c-1.1,0-1.9,0.9-1.9,1.9c0,1.1,0.9,1.9,1.9,1.9h15.3c2.1,0,3.7,1.1,3.7,2
	v4.4c0,0.9-1.6,2-3.7,2h-17c-1.1,0-1.9,0.9-1.9,1.9c0,1.1,0.9,1.9,1.9,1.9h17c2.1,0,3.7,1.1,3.7,2v4.4c0,0.9-1.6,2-3.7,2h-17
	c-1.1,0-1.9,0.9-1.9,1.9c0,1.1,0.9,1.9,1.9,1.9h17c2.1,0,3.7,1.1,3.7,2v4.4c0,0.9-1.6,2-3.7,2H171.9
	C171.9,160.2,171.9,160.2,171.9,160.2z M198,185.5L176.6,164h26.7c4.2,0,7.5-2.6,7.5-5.9v-4.4c0-1.5-0.7-2.9-1.9-3.9
	c1.2-1,1.9-2.4,1.9-3.9v-4.4c0-1.5-0.7-2.9-1.9-3.9c0.2-0.2,0.4-0.4,0.6-0.6l18.5,18.5L198,185.5z"/>
<path class="st0" d="M1322.1,92.4c-0.1-0.5-0.4-0.9-0.9-1.2L1299.7,78c0,0-0.1,0-0.1-0.1c-0.1,0-0.1-0.1-0.2-0.1
	c-0.1,0-0.1,0-0.2-0.1c-0.1,0-0.1,0-0.2,0c-0.1,0-0.1,0-0.2,0c0,0-0.1,0-0.1,0h-86.4c-0.1,0-0.1,0-0.1,0c-0.1,0-0.1,0-0.2,0
	c-0.1,0-0.1,0-0.2,0.1c-0.1,0-0.1,0-0.2,0c-0.1,0-0.1,0.1-0.2,0.1c0,0-0.1,0-0.1,0.1l-21.5,13.2c-0.4,0.3-0.8,0.7-0.9,1.2
	c-0.1,0.5,0,1,0.2,1.5l44.9,73.2c0,0.3,0,0.6,0,0.9c0,11.9,9.7,21.6,21.6,21.6s21.6-9.7,21.6-21.6c0-0.3,0-0.6,0-0.9l44.9-73.2
	C1322.1,93.4,1322.2,92.9,1322.1,92.4z M1295.2,81.6l-13.1,21.3h-53.3l-13.1-21.3H1295.2z M1279.8,106.8l-24.2,39.6c0,0,0,0-0.1,0
	c0,0,0,0-0.1,0l-24.2-39.6H1279.8z M1193.4,93.5l18.2-11.1l39.5,64.5c-7.6,1.6-13.8,7.2-16.2,14.5L1193.4,93.5z M1255.5,185.6
	c-9.7,0-17.7-7.9-17.7-17.7c0-9.7,7.9-17.7,17.7-17.7s17.7,7.9,17.7,17.7C1273.1,177.7,1265.2,185.6,1255.5,185.6z M1276,161.3
	c-2.4-7.3-8.5-12.9-16.2-14.5l39.5-64.5l18.2,11.1L1276,161.3z"/>
<path class="st0" d="M232.7,330.6h-32.2c-4.8,0-8.7,3.9-8.7,8.7v17.4h-64.5v-17.4c0-4.8-3.9-8.7-8.7-8.7H86.5
	c-4.8,0-8.7,3.9-8.7,8.7v57.4c0,4.8,3.9,8.7,8.7,8.7h32.2c4.8,0,8.7-3.9,8.7-8.7v-17.4h64.5v17.4c0,4.8,3.9,8.7,8.7,8.7h32.2
	c4.8,0,8.7-3.9,8.7-8.7v-57.4C241.4,334.5,237.5,330.6,232.7,330.6z M123.5,358.6v18.8v19.3c0,2.6-2.1,4.8-4.8,4.8H86.5
	c-2.6,0-4.8-2.1-4.8-4.8v-57.4c0-2.6,2.1-4.8,4.8-4.8h32.2c2.6,0,4.8,2.1,4.8,4.8V358.6z M191.9,375.4h-64.5v-14.9h64.5V375.4z
	 M237.5,396.7c0,2.6-2.1,4.8-4.8,4.8h-32.2c-2.6,0-4.8-2.1-4.8-4.8v-19.3v-18.8v-19.3c0-2.6,2.1-4.8,4.8-4.8h32.2
	c2.6,0,4.8,2.1,4.8,4.8V396.7z"/>
<g>
	<path class="st0" d="M433.6,340c6.4,0,11.6-5.2,11.6-11.6s-5.2-11.6-11.6-11.6s-11.6,5.2-11.6,11.6S427.2,340,433.6,340z
		 M433.6,320.6c4.3,0,7.8,3.5,7.8,7.8s-3.5,7.8-7.8,7.8c-4.3,0-7.8-3.5-7.8-7.8S429.3,320.6,433.6,320.6z"/>
	<path class="st0" d="M398.9,365.5c-0.5-0.2-1-0.1-1.5,0.1c-0.5,0.2-0.8,0.6-1,1.1l-19.6,62.5c-0.3,1,0.3,2.1,1.3,2.4l18.8,5.9
		c0.2,0.1,0.4,0.1,0.6,0.1c0.3,0,0.6-0.1,0.9-0.2c0.5-0.2,0.8-0.6,1-1.1l19.6-62.5c0.3-1-0.3-2.1-1.3-2.4l-7.5-2.4l7.1-22.7
		c4.3,3.9,10,6.4,16.3,6.4s12-2.4,16.3-6.4L457,369l-7.5,2.4c-1,0.3-1.6,1.4-1.3,2.4l19.6,62.5c0.2,0.5,0.5,0.9,1,1.1
		c0.3,0.1,0.6,0.2,0.9,0.2c0.2,0,0.4,0,0.6-0.1l18.8-5.9c1-0.3,1.6-1.4,1.3-2.4l-19.6-62.5c-0.2-0.5-0.5-0.9-1-1.1
		c-0.5-0.2-1-0.3-1.5-0.1l-7.5,2.4l-7.8-24.8c3.1-4.1,5-9.2,5-14.7c0-13.4-10.9-24.3-24.3-24.3c-13.4,0-24.3,10.9-24.3,24.3
		c0,5.5,1.9,10.6,5,14.7l-7.8,24.8L398.9,365.5z M460,372.2C460,372.2,460,372.2,460,372.2l7.5-2.4l18.4,58.8l-15.1,4.7l-18.4-58.8
		L460,372.2C460,372.2,460,372.2,460,372.2z M413.1,328.4c0-11.3,9.2-20.5,20.5-20.5c11.3,0,20.5,9.2,20.5,20.5s-9.2,20.5-20.5,20.5
		C422.3,348.9,413.1,339.7,413.1,328.4z M407.2,372.2C407.2,372.2,407.2,372.2,407.2,372.2l7.5,2.4l-18.4,58.8l-15.1-4.7l18.4-58.8
		L407.2,372.2C407.2,372.2,407.2,372.2,407.2,372.2z"/>
</g>
<path class="st0" d="M1316.3,542.5h-25.9h-70h-25.9c-1.1,0-1.9,0.9-1.9,1.9v17c0,12.5,10.1,22.6,22.6,22.6h3.3v2.4
	c0,15.6,12,28.4,27.3,29.8v36.9h-10.3c-4.6,0-8.4,3.8-8.4,8.4v10.5c0,1.1,0.9,1.9,1.9,1.9h52.7c1.1,0,1.9-0.9,1.9-1.9v-10.5
	c0-4.6-3.8-8.4-8.4-8.4h-10.3v-36.9c15.3-1.3,27.3-14.2,27.3-29.8V584h3.3c12.5,0,22.6-10.1,22.6-22.6v-17
	C1318.2,543.3,1317.4,542.5,1316.3,542.5z M1218.5,580.1h-3.3c-10.3,0-18.7-8.4-18.7-18.7v-15.1h22V580.1z M1275.4,656.9
	c2.5,0,4.5,2,4.5,4.5v8.5h-48.8v-8.5c0-2.5,2-4.5,4.5-4.5h12.2h15.4H1275.4z M1249.7,653.1v-36.8h11.5v36.8H1249.7z M1288.5,582.1
	v4.3c0,14.3-11.7,26-26,26h-14.1c-14.3,0-26-11.7-26-26v-4.3v-35.7h66.1V582.1z M1314.4,561.4c0,10.3-8.4,18.7-18.7,18.7h-3.3v-33.8
	h22V561.4z"/>
<path class="st0" d="M911.6,200.7h139.8c1.1,0,1.9-0.9,1.9-1.9v-16c0-13.1-8.8-24.7-21.4-28.3l-15.1-4.3c-0.1-0.4-0.3-0.7-0.5-1
	l-6.8-6.8c6.2-9.3,9.7-21.2,9.7-32.9c0-25-15.9-43.1-37.7-43.1c-18.6,0-32.8,13.1-36.7,32.4c0,0,0,0.1,0,0.1c-0.7,3.3-1,6.9-1,10.6
	c0,12.3,3.7,23.9,9.7,32.9l-6.8,6.8c-0.3,0.3-0.4,0.6-0.5,1l-15.1,4.3c-12.6,3.6-21.4,15.2-21.4,28.3v16
	C909.7,199.8,910.5,200.7,911.6,200.7z M979.6,196.8h-18.8v-30.7l7.7,7.7c0.4,0.4,0.9,0.6,1.4,0.6s1-0.2,1.4-0.6l8.4-8.4V196.8z
	 M1002.3,196.8h-18.8v-31.4l8.4,8.4c0.4,0.4,0.9,0.6,1.4,0.6s1-0.2,1.4-0.6l7.7-7.7V196.8z M1028.9,157.7l2,0.6
	c10.9,3.1,18.6,13.2,18.6,24.6v14h-20.6V157.7z M1025,156.6v40.3h-18.8v-34.6l8.5-8.5L1025,156.6z M1012.2,150.6l-9.4,9.4
	c0,0,0,0,0,0l-9.7,9.7l-8.9-8.9l1.1-1.1c8.1-1.2,15.8-6.1,21.9-14L1012.2,150.6z M981.5,70.4c17.5,0,30.7,13.2,33.4,32.2
	c-3.9-5-10.6-11.8-19.7-15.3c-1-0.4-2.1,0.1-2.5,1.1c-0.2,0.5-5.3,13.3-25.9,13.7c-4.7,0.1-7.2-1-9.8-2.2c-2.2-1-4.5-2.1-7.9-2.4
	C953.2,81.3,965.6,70.4,981.5,70.4z M947.7,109.6c0-2.8,0.2-5.6,0.7-8.2c3,0.2,4.9,1.1,7.1,2.1c2.7,1.3,5.9,2.7,11.5,2.6
	c18.8-0.4,26.2-10.3,28.6-14.5c11.4,5.1,18.5,16.2,19.9,18.5c-0.1,11.3-3.7,22.7-9.9,31.5c-5.8,8.3-13.4,13.4-21.3,14.3
	c-0.9,0.1-1.8,0.2-2.7,0.2c-9,0-17.5-5.5-23.7-14c-0.1-0.2-0.2-0.5-0.4-0.7c0,0,0,0-0.1,0C951.4,132.9,947.7,121.6,947.7,109.6z
	 M955.8,145.7c5.9,7.6,13.6,12.8,21.9,14l1.1,1.1l-8.9,8.9l-9.7-9.7c0,0,0,0,0,0l-9.4-9.4L955.8,145.7z M938,156.6l10.3-2.9l8.5,8.5
	v34.6H938V156.6z M913.6,182.8c0-11.4,7.6-21.5,18.6-24.6l2-0.6v39.2h-20.6V182.8z"/>
<g>
	<path class="st0" d="M1292.9,803.5h-10.5v-8.7h10.3c1.1,0,1.9-0.9,1.9-1.9v-13.5c0-1.1-0.9-1.9-1.9-1.9h-74.5
		c-1.1,0-1.9,0.9-1.9,1.9v13.5c0,1.1,0.9,1.9,1.9,1.9h10.3v8.7h-10.5c-7.7,0-13.9,6.2-13.9,13.9v82.2c0,7.7,6.2,13.9,13.9,13.9h74.8
		c7.7,0,13.9-6.2,13.9-13.9v-82.2C1306.8,809.7,1300.5,803.5,1292.9,803.5z M1220.1,790.8v-9.6h70.7v9.6h-10.3h-50H1220.1z
		 M1302.9,899.6c0,5.5-4.5,10-10,10h-74.8c-5.5,0-10-4.5-10-10v-82.2c0-5.5,4.5-10,10-10h12.4c1.1,0,1.9-0.9,1.9-1.9v-10.7h46.1
		v10.7c0,1.1,0.9,1.9,1.9,1.9h12.4c5.5,0,10,4.5,10,10V899.6z"/>
	<path class="st0" d="M1284.7,822.4h-58.4c-3.7,0-6.7,3-6.7,6.7v58.7c0,3.7,3,6.7,6.7,6.7h58.4c3.7,0,6.7-3,6.7-6.7v-58.7
		C1291.4,825.4,1288.4,822.4,1284.7,822.4z M1287.5,887.8c0,1.5-1.3,2.8-2.8,2.8h-58.4c-1.5,0-2.8-1.3-2.8-2.8v-58.7
		c0-1.5,1.3-2.8,2.8-2.8h58.4c1.5,0,2.8,1.3,2.8,2.8V887.8z"/>
	<path class="st0" d="M1263.3,837.6c-0.9-0.6-2.1-0.3-2.7,0.6l-12.6,19.3c0,0,0,0.1-0.1,0.1c0,0.1-0.1,0.1-0.1,0.2
		c0,0.1,0,0.1-0.1,0.2c0,0.1,0,0.1,0,0.2c0,0.1,0,0.2,0,0.3c0,0,0,0.1,0,0.1c0,0,0,0,0,0c0,0.1,0,0.2,0,0.3c0,0,0,0,0,0
		c0,0.1,0.1,0.2,0.1,0.4c0,0,0,0,0,0c0.1,0.3,0.3,0.5,0.5,0.7c0.1,0,0.1,0.1,0.2,0.1c0,0,0,0,0,0c0,0,0,0,0,0
		c0.1,0.1,0.3,0.1,0.4,0.2c0,0,0.1,0,0.1,0c0.2,0,0.3,0.1,0.5,0.1c0,0,0,0,0,0c0,0,0,0,0,0c0,0,0,0,0,0h8.1l-10.7,16.2
		c-0.6,0.9-0.3,2.1,0.6,2.7c0.3,0.2,0.7,0.3,1.1,0.3c0.6,0,1.3-0.3,1.6-0.9l12.6-19.3c0.4-0.6,0.4-1.4,0.1-2c-0.3-0.6-1-1-1.7-1
		h-8.1l10.6-16.2C1264.5,839.4,1264.2,838.2,1263.3,837.6z"/>
</g>
<path class="st0" d="M147.6,638.9v-61.6c0-15.1-12.3-27.4-27.4-27.4s-27.4,12.3-27.4,27.4v61.6c0,15.1,12.3,27.4,27.4,27.4
	S147.6,654,147.6,638.9z M96.7,577.4c0-13,10.5-23.5,23.5-23.5s23.5,10.5,23.5,23.5v28.8h-47V577.4z M96.7,638.9v-28.8h47v28.8
	c0,13-10.5,23.5-23.5,23.5S96.7,651.9,96.7,638.9z"/>
<path class="st0" d="M166.5,583.3c-13.7,13.7-13.7,36,0,49.7c6.9,6.9,15.9,10.3,24.9,10.3c9,0,18-3.4,24.9-10.3
	c13.7-13.7,13.7-36,0-49.7C202.5,569.6,180.2,569.6,166.5,583.3z M169.2,586c6.1-6.1,14.1-9.1,22.1-9.1c7.4,0,14.8,2.6,20.7,7.8
	l-44.1,44.1C157.1,616.5,157.5,597.8,169.2,586z M213.4,630.3c-11.7,11.7-30.5,12.1-42.8,1.3l44.1-44.1
	C225.6,599.7,225.2,618.5,213.4,630.3z"/>
<g>
	<path class="st0" d="M433.6,675.5c31.7,0,57.5-25.8,57.5-57.5c0-14.7-5.6-28.1-14.7-38.3l3.1-3.1l2.5,2.5c0.4,0.4,0.9,0.6,1.4,0.6
		s1-0.2,1.4-0.6l5.1-5.1c0.8-0.8,0.8-2,0-2.7l-13.1-13.1c-0.7-0.7-2-0.7-2.7,0l-5.1,5.1c-0.8,0.8-0.8,2,0,2.7l2.5,2.5l-3.5,3.5
		c-7.9-5.9-17.3-9.8-27.5-11v-7.1h5c1.1,0,1.9-0.9,1.9-1.9v-9.2c0-1.1-0.9-1.9-1.9-1.9h-23.6c-1.1,0-1.9,0.9-1.9,1.9v9.2
		c0,1.1,0.9,1.9,1.9,1.9h5v7.1c-28.5,3.4-50.7,27.7-50.7,57.1C376.1,649.7,401.9,675.5,433.6,675.5z M475.4,562.2l10.3,10.3
		l-2.3,2.3l-2.5-2.5c0,0,0,0,0,0l-5.4-5.4c0,0,0,0,0,0l-2.5-2.5L475.4,562.2z M474.2,571.2l2.7,2.7l-3.1,3.1
		c-0.9-0.8-1.7-1.6-2.7-2.4l-0.1-0.1L474.2,571.2z M423.7,550v-5.3h19.7v5.3h-5h-9.8H423.7z M436.5,553.9v6.7c-1,0-2-0.1-2.9-0.1
		s-2,0-2.9,0.1v-6.7H436.5z M429.1,564.6h8.9c11.5,1,22,5.6,30.4,12.7l3.8,3.8c0.2,0.2,0.4,0.3,0.5,0.4c8.9,9.6,14.4,22.4,14.4,36.5
		c0,29.6-24,53.6-53.6,53.6c-29.6,0-53.6-24-53.6-53.6C380,590,401.7,566.9,429.1,564.6z"/>
	<path class="st0" d="M433.6,622.1c2.3,0,4.1-1.8,4.1-4.1c0-0.4-0.1-0.8-0.2-1.1l23.4-23.4c0.8-0.8,0.8-2,0-2.7s-2-0.8-2.7,0
		l-23.4,23.4c-0.4-0.1-0.7-0.2-1.1-0.2c-2.3,0-4.1,1.8-4.1,4.1C429.5,620.3,431.3,622.1,433.6,622.1z"/>
</g>
<g>
	<path class="st0" d="M711.9,533.3h-8.5c-1.1,0-1.9,0.9-1.9,1.9v13.1h-6.3c-1.1,0-1.9,0.9-1.9,1.9v8.1h-3.9c-8.3,0-15,6.7-15,15
		v22.8v49V668c0,8.3,6.7,15,15,15h36.7c8.3,0,15-6.7,15-15v-22.8v-49v-22.8c0-8.3-6.7-15-15-15h-3.9v-8.1c0-1.1-0.9-1.9-1.9-1.9
		h-6.1v-13.1C713.9,534.2,713,533.3,711.9,533.3z M705.3,537.2h4.7v11.1h-4.7V537.2z M737,668c0,6.1-5,11.1-11.1,11.1h-36.7
		c-6.1,0-11.1-5-11.1-11.1v-20.9H737V668z M737,643.2h-58.9v-45.1H737V643.2z M725.9,562.2c6.1,0,11.1,5,11.1,11.1v20.9h-58.9v-20.9
		c0-6.1,5-11.1,11.1-11.1h5.9H720H725.9z M718,552.2v6.2h-21v-6.2h6.3h8.5H718z"/>
	<path class="st0" d="M701.8,634.9c1.7,1.4,3.7,2.1,5.7,2.1c2,0,4-0.7,5.7-2.1c3.6-2.9,4.8-8,3-12.5l-6.9-16.9
		c-0.3-0.7-1-1.2-1.8-1.2s-1.5,0.5-1.8,1.2l-6.9,16.9C697,626.9,698.2,632,701.8,634.9z M702.4,623.9l5.1-12.5l5.1,12.5
		c1.2,2.9,0.4,6.2-1.8,8c-0.7,0.6-1.9,1.3-3.3,1.3c-1.4,0-2.6-0.7-3.3-1.3C702,630.1,701.3,626.8,702.4,623.9z"/>
</g>
<g>
	<path class="st0" d="M930.6,592.2c-0.6,0.3-1,1-1,1.7v79.6c0,1.1,0.9,1.9,1.9,1.9h100c1.1,0,1.9-0.9,1.9-1.9v-79.6
		c0-0.7-0.4-1.4-1-1.7c-13.1-7.1-21.6-23.9-21.6-42.9c0-2.1,0.1-4.2,0.3-6.4c0.1-0.5-0.1-1.1-0.5-1.5c-0.4-0.4-0.9-0.6-1.4-0.6h-7.7
		c-1.1,0-1.9,0.9-1.9,1.9c0,10-8.1,18.1-18.1,18.1c-10,0-18.1-8.1-18.1-18.1c0-1.1-0.9-1.9-1.9-1.9h-7.7c-0.5,0-1.1,0.2-1.4,0.6
		c-0.4,0.4-0.5,1-0.5,1.5c0.2,2.2,0.3,4.3,0.3,6.4C952.2,568.3,943.7,585.2,930.6,592.2z M956.1,549.3c0-1.5-0.1-3.1-0.2-4.6h3.7
		c1,11.2,10.4,20,21.9,20c11.5,0,20.9-8.8,21.9-20h3.7c-0.1,1.6-0.2,3.1-0.2,4.6c0,19.9,8.8,37.7,22.6,45.8v76.6h-96.1v-76.6
		C947.2,587,956.1,569.2,956.1,549.3z"/>
	<path class="st0" d="M958,648h47c1.1,0,1.9-0.9,1.9-1.9v-47c0-1.1-0.9-1.9-1.9-1.9h-47c-1.1,0-1.9,0.9-1.9,1.9v47
		C956.1,647.1,956.9,648,958,648z M959.9,601h43.1v43.1h-43.1V601z"/>
	<path class="st0" d="M982.3,617.8c-1.2,0-2.3,0.3-3.4,0.8l0.8-4.4h9.4v-4.7h-13.2l-2.6,13.5l4,0.6c1.1-1.3,2.4-1.9,3.8-1.9
		c1.1,0,2.1,0.4,2.8,1.2c0.7,0.8,1.1,2,1.1,3.6c0,1.7-0.4,3-1.1,3.8c-0.7,0.8-1.6,1.3-2.6,1.3c-0.9,0-1.7-0.3-2.4-1
		c-0.7-0.7-1.1-1.5-1.3-2.7l-5,0.5c0.3,2.2,1.2,3.9,2.7,5.2c1.5,1.3,3.5,1.9,5.9,1.9c3,0,5.3-1.1,7-3.4c1.2-1.7,1.9-3.6,1.9-5.7
		c0-2.6-0.8-4.7-2.3-6.3C986.4,618.6,984.5,617.8,982.3,617.8z"/>
</g>
<g>
	<path class="st0" d="M742.3,344.9v-7.1c0-15.8-12.8-28.6-28.6-28.6c-15.8,0-28.6,12.8-28.6,28.6v7.1c-12.1,8.8-20,23.1-20,39.2
		c0,26.8,21.8,48.5,48.5,48.5c26.8,0,48.5-21.8,48.5-48.5C762.3,368,754.4,353.7,742.3,344.9z M689,337.7
		c0-13.6,11.1-24.7,24.7-24.7c13.6,0,24.7,11.1,24.7,24.7v4.6c-7.2-4.3-15.7-6.8-24.7-6.8c-9,0-17.4,2.5-24.7,6.8V337.7z
		 M713.7,428.7c-24.6,0-44.7-20-44.7-44.7s20-44.7,44.7-44.7c24.6,0,44.7,20,44.7,44.7S738.3,428.7,713.7,428.7z"/>
	<path class="st0" d="M713.7,357.4c-14.7,0-26.7,12-26.7,26.7c0,14.7,12,26.7,26.7,26.7c14.7,0,26.7-12,26.7-26.7
		C740.4,369.3,728.5,357.4,713.7,357.4z M713.7,406.9c-12.6,0-22.8-10.2-22.8-22.8c0-12.6,10.2-22.8,22.8-22.8
		c12.6,0,22.8,10.2,22.8,22.8C736.6,396.7,726.3,406.9,713.7,406.9z"/>
	<path class="st0" d="M707.7,387.3c1.3-1.2,2.2-2.1,2.7-2.7c0.7-1,1.3-1.9,1.6-2.7c0.3-0.9,0.5-1.8,0.5-2.7c0-1.7-0.6-3.1-1.8-4.2
		s-2.9-1.7-5-1.7c-1.9,0-3.5,0.5-4.8,1.5c-1.3,1-2,2.6-2.3,4.9l4.1,0.4c0.1-1.2,0.4-2.1,0.9-2.6c0.5-0.5,1.2-0.8,2-0.8
		c0.9,0,1.5,0.2,2,0.7c0.5,0.5,0.7,1.2,0.7,2.1c0,0.8-0.3,1.7-0.8,2.5c-0.4,0.6-1.5,1.8-3.4,3.5c-2.3,2.1-3.8,3.8-4.6,5.1
		c-0.8,1.3-1.2,2.6-1.4,4.1h14.4v-3.8h-8.1c0.2-0.4,0.5-0.7,0.8-1.1C705.6,389.3,706.5,388.5,707.7,387.3z"/>
	<path class="st0" d="M722.3,373.2c-2.1,0-3.7,0.7-4.8,2.2c-1.4,1.8-2.1,4.7-2.1,8.7c0,4.1,0.6,6.9,1.9,8.5c1.3,1.6,2.9,2.4,5,2.4
		c2.1,0,3.7-0.7,4.8-2.2c1.4-1.8,2.1-4.7,2.1-8.7c0-4.1-0.7-7-2.1-8.7C726,373.9,724.3,373.2,722.3,373.2z M724.5,389.4
		c-0.2,0.8-0.5,1.4-0.9,1.7c-0.4,0.3-0.8,0.5-1.3,0.5c-0.5,0-0.9-0.2-1.3-0.5c-0.4-0.3-0.7-0.9-1-1.9s-0.4-2.7-0.4-5.2
		c0-2.5,0.1-4.3,0.4-5.3c0.2-0.8,0.5-1.4,0.9-1.7c0.4-0.3,0.8-0.5,1.3-0.5c0.5,0,0.9,0.2,1.3,0.5c0.4,0.3,0.7,0.9,1,1.9
		c0.3,0.9,0.4,2.7,0.4,5.2C724.9,386.6,724.8,388.4,724.5,389.4z"/>
</g>
<path class="st0" d="M197.9,781.3h-76.5c-7.7,0-14.5,4.1-18.1,11c-3.6,6.9-3,14.8,1.5,21.1l30,42.4c4.4,10.1,9.7,19.8,15.8,29
	c0.5,0.8,0.7,1.7,0.6,2.5c-0.9,6-6.3,10.6-12.4,10.6H135c-1.1,0-1.9,0.9-1.9,1.9v7.7c0,1.1,0.9,1.9,1.9,1.9h49.2
	c1.1,0,1.9-0.9,1.9-1.9v-7.7c0-1.1-0.9-1.9-1.9-1.9h-3.8c-6.1,0-11.5-4.6-12.4-10.6c-0.1-0.8,0.1-1.7,0.6-2.5
	c6.1-9.2,11.4-18.9,15.8-29l30-42.4c4.5-6.3,5-14.2,1.5-21.1C212.4,785.5,205.6,781.3,197.9,781.3z M108,811.2
	c-3.6-5.1-4.1-11.5-1.2-17.1c2.6-5,7.3-8.2,12.7-8.8c0.2,16,2.5,31.8,6.9,47.2c0.8,2.9,1.7,5.7,2.7,8.5L108,811.2z M165.5,882.7
	c-1.1,1.6-1.5,3.5-1.2,5.2c1.2,8.1,8.1,13.9,16.2,13.9h1.8v3.8H137v-3.8h1.8c8.2,0,15-5.8,16.2-13.9c0.3-1.8-0.2-3.6-1.2-5.2
	c-10.5-15.8-18.5-33-23.7-51.2c-4.3-15-6.6-30.6-6.7-46.2h72.6c-0.2,15.6-2.4,31.2-6.7,46.2C183.9,849.7,176,866.9,165.5,882.7z
	 M211.3,811.2L190.2,841c0.9-2.8,1.9-5.6,2.7-8.5c4.4-15.4,6.7-31.2,6.9-47.2c5.5,0.6,10.1,3.8,12.7,8.8
	C215.4,799.7,214.9,806.1,211.3,811.2z"/>
<path class="st0" d="M499.6,851.1h-7.8c5.3-10.4,8.7-21.8,8.7-34c0-19-15.4-34.4-34.4-34.4c-11.9,0-22.7,6-29,15.9
	c-6.3-9.9-17.1-15.9-29-15.9c-19,0-34.4,15.4-34.4,34.4c0,12.1,3.5,23.6,8.7,34h-15c-1.1,0-1.9,0.9-1.9,1.9s0.9,1.9,1.9,1.9h17
	c17.3,30.8,49.7,51.7,51.5,52.8c0.3,0.2,0.7,0.3,1,0.3c0.4,0,0.7-0.1,1-0.3c1.9-1.2,34.2-22,51.5-52.8h9.9c1.1,0,1.9-0.9,1.9-1.9
	S500.7,851.1,499.6,851.1z M437.2,903.8c-5.6-3.8-32.3-22.6-47.9-48.9h12.1c0.8,0,1.5-0.5,1.8-1.2l12.3-30.8l12.3,30.8
	c0.3,0.7,1,1.2,1.8,1.2h6.4l10.6,20.5c0.3,0.6,1,1,1.7,1s1.4-0.4,1.7-1l20.6-39.8l9.4,18.2c0.3,0.6,1,1,1.7,1h3.3
	C469.4,881.2,442.8,900.1,437.2,903.8z M487.3,851.1H483l-10.6-20.5c-0.3-0.6-1-1-1.7-1s-1.4,0.4-1.7,1l-20.6,39.8l-9.4-18.2
	c-0.3-0.6-1-1-1.7-1h-6.2L417.3,817c-0.3-0.7-1-1.2-1.8-1.2c-0.8,0-1.5,0.5-1.8,1.2l-13.6,34.1h-13c-5.6-10.4-9.3-21.9-9.3-34
	c0-16.8,13.7-30.5,30.5-30.5c11.6,0,22,6.4,27.2,16.8c0.3,0.7,1,1.1,1.7,1.1c0.7,0,1.4-0.4,1.7-1.1c5.2-10.4,15.7-16.8,27.2-16.8
	c16.8,0,30.5,13.7,30.5,30.5C496.7,829.2,492.9,840.7,487.3,851.1z"/>
<path class="st0" d="M735.5,780.6h-49.7c-9.1,0-16.5,9.4-16.5,21v5.3c0,0.1,0,0.2,0,0.3l2.4,14.7c-4.3,0.6-8.2,2.8-10.9,6.3
	c-3.1,4.1-4.2,9.4-2.8,14.4c3,11.1,8.7,21.6,16.4,30.2l4.2,4.7h-5.7c-1.1,0-1.9,0.9-1.9,1.9v28.9c0,1.1,0.9,1.9,1.9,1.9h30h51.1
	c1.1,0,1.9-0.9,1.9-1.9v-28.9c0-1.1-0.9-1.9-1.9-1.9h-4.7c0.4-0.6,0.8-1.3,1.1-2l0.4-1c2.1-5.9,3.6-11.9,4.3-18
	c1.7-14.1,2.6-28.5,2.6-42.8v-4.6c0-3.2-0.4-6.3-1.2-9.3C753.4,788.3,745,780.6,735.5,780.6z M677.3,870.1
	c-7.3-8.2-12.7-18-15.6-28.6c-1-3.8-0.3-7.8,2.1-11c2.1-2.7,5.1-4.4,8.4-4.8l7.7,47.4L677.3,870.1z M708.7,900.6
	c0,3.2-2.6,5.7-5.7,5.7h-28.1v-25h8.1h20c3.2,0,5.7,2.6,5.7,5.7V900.6z M752.1,881.3v25h-41.5c1.2-1.6,1.9-3.6,1.9-5.7V887
	c0-2.1-0.7-4.1-1.9-5.7H742H752.1z M753.8,813.6c0,14.1-0.9,28.4-2.6,42.4c-0.7,5.8-2.1,11.6-4.1,17.2l-0.4,1
	c-0.7,2-2.6,3.3-4.7,3.3h-39.1h-18.3l-11.5-70.7v-5.1c0-9.4,5.7-17.1,12.6-17.1h49.7c7.7,0,14.6,6.5,17.2,16.3
	c0.7,2.7,1.1,5.5,1.1,8.3V813.6z"/>
<g>
	<path class="st0" d="M1021,780.7h-79c-13.9,0-25.2,11.3-25.2,25.2v79c0,13.9,11.3,25.2,25.2,25.2h79c13.9,0,25.2-11.3,25.2-25.2
		v-79C1046.2,792,1034.9,780.7,1021,780.7z M1042.3,884.9c0,11.8-9.6,21.4-21.4,21.4h-79c-11.8,0-21.4-9.6-21.4-21.4v-79
		c0-11.8,9.6-21.4,21.4-21.4h79c11.8,0,21.4,9.6,21.4,21.4V884.9z"/>
	<path class="st0" d="M956.3,822.8h50.5c7.8,0,14.1-6.3,14.1-14.1s-6.3-14.1-14.1-14.1h-50.5c-7.8,0-14.1,6.3-14.1,14.1
		S948.5,822.8,956.3,822.8z M956.3,798.5h3.1v5.5c0,1.1,0.9,1.9,1.9,1.9s1.9-0.9,1.9-1.9v-5.5h16.3v5.5c0,1.1,0.9,1.9,1.9,1.9
		s1.9-0.9,1.9-1.9v-5.5h16.3v5.5c0,1.1,0.9,1.9,1.9,1.9s1.9-0.9,1.9-1.9v-5.5h3.1c5.6,0,10.2,4.6,10.2,10.2s-4.6,10.2-10.2,10.2
		h-23.3v-5.8c0-1.1-0.9-1.9-1.9-1.9s-1.9,0.9-1.9,1.9v5.8h-23.3c-5.6,0-10.2-4.6-10.2-10.2S950.6,798.5,956.3,798.5z"/>
	<path class="st0" d="M1019.9,840.1h-76.7c-1.1,0-1.9,0.9-1.9,1.9s0.9,1.9,1.9,1.9h76.7c1.1,0,1.9-0.9,1.9-1.9
		S1020.9,840.1,1019.9,840.1z"/>
	<path class="st0" d="M1019.9,861.6h-76.7c-1.1,0-1.9,0.9-1.9,1.9s0.9,1.9,1.9,1.9h76.7c1.1,0,1.9-0.9,1.9-1.9
		S1020.9,861.6,1019.9,861.6z"/>
	<path class="st0" d="M1019.9,883.1h-76.7c-1.1,0-1.9,0.9-1.9,1.9s0.9,1.9,1.9,1.9h76.7c1.1,0,1.9-0.9,1.9-1.9
		S1020.9,883.1,1019.9,883.1z"/>
</g>
<path class="st0" d="M1056.6,341.9h-1.3v-7.3c0-1.1-0.9-1.9-1.9-1.9h-11.2v-6c0-1.1-0.9-1.9-1.9-1.9H1027c-1.1,0-1.9,0.9-1.9,1.9
	v18.3H938v-16c0-1.1-0.9-1.9-1.9-1.9h-13.2c-1.1,0-1.9,0.9-1.9,1.9v6h-11.2c-1.1,0-1.9,0.9-1.9,1.9v8h-1.3c-5,0-9.1,4.1-9.1,9.1v1
	c0,5,4.1,9.1,9.1,9.1h1.3v7.3c0,1.1,0.9,1.9,1.9,1.9h11.2v6c0,1.1,0.9,1.9,1.9,1.9H936c1.1,0,1.9-0.9,1.9-1.9V364h8.6v57.3h-7.4
	c-1.1,0-1.9,0.9-1.9,1.9c0,1.1,0.9,1.9,1.9,1.9h18.8c1.1,0,1.9-0.9,1.9-1.9c0-1.1-0.9-1.9-1.9-1.9h-7.4V364h62.1v57.3h-7.4
	c-1.1,0-1.9,0.9-1.9,1.9c0,1.1,0.9,1.9,1.9,1.9h18.8c1.1,0,1.9-0.9,1.9-1.9c0-1.1-0.9-1.9-1.9-1.9h-7.4V364h8.6v13
	c0,1.1,0.9,1.9,1.9,1.9h13.2c1.1,0,1.9-0.9,1.9-1.9v-6h11.2c1.1,0,1.9-0.9,1.9-1.9v-8h1.3c5,0,9.1-4.1,9.1-9.1v-1
	C1065.6,345.9,1061.6,341.9,1056.6,341.9z M907.8,360.1h-1.3c-2.9,0-5.2-2.3-5.2-5.2v-1c0-2.9,2.3-5.2,5.2-5.2h1.3V360.1z
	 M920.9,369.4h-9.3V362v-15.2v-8h9.3V369.4z M934.1,346.8V362v15.3h-9.3v-6v-34.5v-6h9.3V346.8z M1025.1,360.1H938v-11.3h87.1V360.1
	z M1038.2,334.5V369v6h-9.3v-13v-15.2v-18.3h9.3V334.5z M1051.4,343.8V359v8h-9.3v-30.6h9.3V343.8z M1061.8,351.9
	c0,2.9-2.3,5.2-5.2,5.2h-1.3v-11.4h1.3c2.9,0,5.2,2.3,5.2,5.2V351.9z"/>
<path class="st0" d="M1290.7,360.4v-0.5c0-1.1-0.9-1.9-1.9-1.9h-1.9V309c0-1.1-0.9-1.9-1.9-1.9h-8.5c-1.1,0-1.9,0.9-1.9,1.9v48.9
	h-1.9c-1.1,0-1.9,0.9-1.9,1.9v0.5c-3.4,0.9-6.6,2.3-9.6,4c-5.2-6.9-12.5-11.8-20.9-14v-0.5c0-1.1-0.9-1.9-1.9-1.9h-1.9V309
	c0-1.1-0.9-1.9-1.9-1.9h-8.5c-1.1,0-1.9,0.9-1.9,1.9v38.9h-1.9c-1.1,0-1.9,0.9-1.9,1.9v0.5c-16.8,4.5-28.8,20-28.8,37.5
	c0,21.4,17.4,38.8,38.8,38.8c6.9,0,13.7-1.9,19.6-5.3c7.1,9.3,18.3,15.3,30.9,15.3c21.4,0,38.8-17.4,38.8-38.8
	C1319.5,380.4,1307.5,364.8,1290.7,360.4z M1278.4,310.9h4.6v46.9h-4.6V310.9z M1274.6,361.9
	C1274.6,361.9,1274.6,361.9,1274.6,361.9L1274.6,361.9l1.9-0.1h8.5h1.9v8.1c0,0,0,0,0,0h-12.3V361.9z M1270.9,372.7
	c0.3,0.6,1,1.1,1.7,1.1h16.2c0.8,0,1.4-0.4,1.7-1.1c10.2,4,17.2,14,17.2,25.2c0,14.9-12.1,27-27,27c-8.9,0-16.8-4.3-21.7-11
	c6.5-7.1,10-16.3,10-26c0-4.5-0.8-8.9-2.3-13.1C1268,373.9,1269.4,373.3,1270.9,372.7z M1261.1,387.9c0-2.6-0.3-5.1-0.9-7.5
	c1-1.2,2.1-2.3,3.3-3.2c1.1,3.5,1.7,7.1,1.7,10.8c0,8.4-2.9,16.3-8.3,22.6c-0.7-1.3-1.3-2.8-1.8-4.2
	C1259,400.9,1261.1,394.6,1261.1,387.9z M1253.9,401c-0.1-1-0.2-2.1-0.2-3.1c0-4.6,1.2-9.1,3.4-13c0.1,1,0.2,2,0.2,3
	C1257.2,392.5,1256.1,397,1253.9,401z M1240.3,354.4c7,2.1,13.1,6.3,17.6,12.1c-1.1,0.8-2.1,1.6-3.1,2.6c-3.7-4.8-8.7-8.4-14.5-10.4
	V354.4z M1227.9,310.9h4.6v37h-4.6V310.9z M1224.1,351.9C1224.1,351.9,1224.1,351.9,1224.1,351.9L1224.1,351.9l1.9-0.1h8.5h1.9v8.1
	c0,0,0,0,0,0h-12.3V351.9z M1220.4,362.7c0.3,0.6,1,1.1,1.7,1.1h16.2c0.8,0,1.4-0.4,1.7-1.1c4.7,1.9,8.9,5,11.9,9.2
	c-6.3,7-10.1,16.2-10.1,26c0,4.6,0.8,9,2.3,13.1c-4.2,2.6-9,3.9-14,3.9c-14.9,0-27-12.1-27-27
	C1203.2,376.7,1210.2,366.7,1220.4,362.7z M1230.2,422.8c-19.3,0-34.9-15.7-34.9-34.9c0-15.4,10.3-29.1,24.9-33.4v4.2
	c-12.4,4.2-20.9,16-20.9,29.2c0,17,13.9,30.9,30.9,30.9c5.5,0,10.8-1.4,15.5-4.2c0.6,1.2,1.2,2.4,1.9,3.5
	C1242.4,421.2,1236.4,422.8,1230.2,422.8z M1280.7,432.8c-19.3,0-34.9-15.7-34.9-34.9c0-15.4,10.3-29.1,24.9-33.4v4.2
	c-2.6,0.9-5,2.1-7.2,3.6c-0.1,0.1-0.3,0.1-0.4,0.2c-2.4,1.7-4.5,3.6-6.3,5.9c-0.2,0.2-0.4,0.4-0.5,0.6c-4.1,5.3-6.5,11.9-6.5,18.9
	c0,3,0.4,5.8,1.2,8.6c0,0,0,0.1,0,0.1c3.8,12.8,15.6,22.2,29.6,22.2c17,0,30.9-13.9,30.9-30.9c0-13.2-8.5-25-20.9-29.2v-4.2
	c14.6,4.4,24.9,18,24.9,33.4C1315.6,417.1,1300,432.8,1280.7,432.8z"/>
</svg>
