<svg width="33" height="33" viewBox="0 0 33 33" fill="none" xmlns="http://www.w3.org/2000/svg">
<path d="M15.8008 10.8281C14.679 10.8281 13.5824 11.1608 12.6497 11.784C11.7169 12.4072 10.9899 13.2931 10.5607 14.3295C10.1314 15.3659 10.019 16.5063 10.2379 17.6065C10.4567 18.7068 10.9969 19.7174 11.7902 20.5106C12.5834 21.3038 13.594 21.844 14.6943 22.0629C15.7945 22.2817 16.9349 22.1694 17.9713 21.7401C19.0077 21.3108 19.8935 20.5839 20.5168 19.6511C21.14 18.7184 21.4727 17.6218 21.4727 16.5C21.471 14.9962 20.8728 13.5546 19.8095 12.4913C18.7462 11.4279 17.3045 10.8298 15.8008 10.8281ZM15.8008 20.1094C15.0869 20.1094 14.3891 19.8977 13.7955 19.5011C13.202 19.1045 12.7393 18.5408 12.4662 17.8812C12.193 17.2217 12.1215 16.496 12.2608 15.7958C12.4 15.0957 12.7438 14.4526 13.2486 13.9478C13.7534 13.443 14.3965 13.0992 15.0966 12.96C15.7968 12.8207 16.5225 12.8922 17.182 13.1654C17.8416 13.4386 18.4053 13.9012 18.8019 14.4947C19.1985 15.0883 19.4102 15.7861 19.4102 16.5C19.4091 17.4569 19.0285 18.3744 18.3518 19.051C17.6752 19.7277 16.7577 20.1083 15.8008 20.1094Z" fill="black"/>
<path d="M29.9513 20.7745L27.9037 19.0888C28.2667 17.382 28.2667 15.618 27.9037 13.9112L29.9513 12.2255C30.1875 12.032 30.3471 11.7608 30.4015 11.4604C30.4559 11.1599 30.4015 10.8499 30.2482 10.5859L28.1463 6.94541C27.9943 6.68052 27.753 6.47842 27.4655 6.37531C27.1781 6.2722 26.8633 6.27483 26.5777 6.38273L24.0923 7.31389C22.7976 6.14411 21.2701 5.26131 19.6102 4.72339L19.1741 2.10846C19.1248 1.8071 18.9697 1.53317 18.7367 1.33578C18.5037 1.13838 18.208 1.03042 17.9026 1.03125H13.6988C13.3935 1.03043 13.0978 1.13839 12.8648 1.33577C12.6318 1.53315 12.4767 1.80705 12.4273 2.1084L11.9915 4.72339C10.3315 5.26129 8.80411 6.1441 7.50939 7.31389L5.02376 6.3826C4.7381 6.27477 4.42338 6.27218 4.13598 6.3753C3.84859 6.47842 3.6073 6.6805 3.45536 6.94534L1.35348 10.5861C1.20018 10.8502 1.14589 11.1601 1.20034 11.4606C1.25478 11.761 1.4144 12.0322 1.6506 12.2257L3.69809 13.9112C3.33509 15.618 3.33509 17.382 3.69809 19.0888L1.65041 20.7745C1.41424 20.968 1.25467 21.2392 1.20026 21.5396C1.14586 21.8401 1.20017 22.1501 1.35348 22.4141L3.45542 26.0546C3.60738 26.3195 3.84871 26.5216 4.13614 26.6247C4.42358 26.7278 4.73834 26.7252 5.02402 26.6173L7.50946 25.6861C8.80417 26.8559 10.3316 27.7387 11.9915 28.2766L12.4274 30.8915C12.4767 31.1929 12.6318 31.4668 12.8648 31.6642C13.0978 31.8616 13.3935 31.9696 13.6988 31.9688H17.9026C18.208 31.9696 18.5036 31.8616 18.7366 31.6643C18.9696 31.4669 19.1247 31.193 19.1741 30.8916L19.61 28.2766C21.2699 27.7387 22.7974 26.8559 24.0921 25.6861L26.5777 26.6174C26.8633 26.7252 27.178 26.7278 27.4654 26.6247C27.7528 26.5216 27.9941 26.3195 28.1461 26.0547L30.2478 22.4139C30.4012 22.1499 30.4555 21.84 30.4012 21.5396C30.3469 21.2392 30.1874 20.968 29.9513 20.7745ZM26.6877 24.456L23.5869 23.2943L23.1174 23.767C21.8255 25.0691 20.2096 26.003 18.4365 26.4723L17.7919 26.6422L17.2476 29.9063H14.3543L13.8102 26.6422L13.1657 26.4723C11.3925 26.003 9.77663 25.0691 8.48476 23.767L8.01522 23.2943L4.91393 24.456L3.46754 21.9503L6.02175 19.8476L5.84773 19.2048C5.36915 17.4333 5.36915 15.5667 5.84773 13.7952L6.02175 13.1525L3.46754 11.0498L4.91425 8.54398L8.01503 9.70568L8.48457 9.23298C9.77643 7.93087 11.3923 6.99699 13.1655 6.52769L13.81 6.35779L14.3541 3.09375H17.2476L17.7917 6.35779L18.4363 6.52769C20.2094 6.99699 21.8253 7.93087 23.1172 9.23298L23.5867 9.70568L26.6875 8.54398L28.1343 11.0497L25.5801 13.1525L25.7541 13.7952C26.2327 15.5667 26.2327 17.4333 25.7541 19.2048L25.5801 19.8476L28.1343 21.9502L26.6877 24.456Z" fill="black"/>
</svg>
