<svg id="visual" viewBox="0 0 1920 400" width="1920" height="400" xmlns="http://www.w3.org/2000/svg" xmlns:xlink="http://www.w3.org/1999/xlink" version="1.1"><path d="M0 267L53.3 241.7C106.7 216.3 213.3 165.7 320 166.5C426.7 167.3 533.3 219.7 640 255.5C746.7 291.3 853.3 310.7 960 296.8C1066.7 283 1173.3 236 1280 238.8C1386.7 241.7 1493.3 294.3 1600 299.2C1706.7 304 1813.3 261 1866.7 239.5L1920 218L1920 401L1866.7 401C1813.3 401 1706.7 401 1600 401C1493.3 401 1386.7 401 1280 401C1173.3 401 1066.7 401 960 401C853.3 401 746.7 401 640 401C533.3 401 426.7 401 320 401C213.3 401 106.7 401 53.3 401L0 401Z" fill="#727272" stroke-linecap="round" stroke-linejoin="miter"></path></svg>