<svg width="33" height="33" viewBox="0 0 33 33" fill="none" xmlns="http://www.w3.org/2000/svg">
<path d="M27.8768 13.5699L23.144 6.81174L25.3977 5.23462L30.129 11.9927L27.8768 13.5699ZM25.2863 17.0624L22.9213 13.6812L11.6573 21.5682L14.0223 24.9466L11.77 26.5251L5.46155 17.5134L7.7138 15.9362L10.0788 19.316L21.3428 11.429L18.9778 8.04924L21.23 6.47212L27.5385 15.4825L25.2863 17.061V17.0624ZM28.5519 9.73912L30.8042 8.16199L29.227 5.90974L26.9748 7.48687L28.5519 9.73912ZM9.85605 26.1882L5.1233 19.4301L2.87105 21.0072L7.60242 27.7654L9.85605 26.1882ZM6.0253 25.5131L3.77305 27.0902L2.19592 24.838L4.44817 23.2609L6.0253 25.5131Z" fill="black"/>
</svg>
